<svg fill="none" viewBox="0 0 24 24" width="24px" height="24px" stroke-linecap="round" stroke-linejoin="round" stroke-width="2" class="p1bbpzf _51gazn11d _51gazn12n _51gazn34b"><path fill="currentColor" fill-rule="evenodd" d="M5.5 6.1a.6.6 0 0 1 .6-.6h.8a.6.6 0 0 1 .6.6v.8a.6.6 0 0 1-.6.6h-.8a.6.6 0 0 1-.6-.6zM5.5 17.1a.6.6 0 0 1 .6-.6h.8a.6.6 0 0 1 .6.6v.8a.6.6 0 0 1-.6.6h-.8a.6.6 0 0 1-.6-.6zM16.5 6.1a.6.6 0 0 1 .6-.6h.8a.6.6 0 0 1 .6.6v.8a.6.6 0 0 1-.6.6h-.8a.6.6 0 0 1-.6-.6z" clip-rule="evenodd"></path><path stroke="currentColor" stroke-linecap="round" stroke-linejoin="round" d="M3 5a2 2 0 0 1 2-2h3a2 2 0 0 1 2 2v3a2 2 0 0 1-2 2H5a2 2 0 0 1-2-2zM3 16a2 2 0 0 1 2-2h3a2 2 0 0 1 2 2v3a2 2 0 0 1-2 2H5a2 2 0 0 1-2-2zM14 5a2 2 0 0 1 2-2h3a2 2 0 0 1 2 2v3a2 2 0 0 1-2 2h-3a2 2 0 0 1-2-2z"></path><path fill="currentColor" d="M13 14a1 1 0 0 1 1-1h1a1 1 0 0 1 1 1v1a1 1 0 0 1-1 1h-1a1 1 0 0 1-1-1zM13 20a1 1 0 0 1 1-1h1a1 1 0 0 1 1 1v1a1 1 0 0 1-1 1h-1a1 1 0 0 1-1-1zM19 20a1 1 0 0 1 1-1h1a1 1 0 0 1 1 1v1a1 1 0 0 1-1 1h-1a1 1 0 0 1-1-1zM19 14a1 1 0 0 1 1-1h1a1 1 0 0 1 1 1v1a1 1 0 0 1-1 1h-1a1 1 0 0 1-1-1zM16 17a1 1 0 0 1 1-1h1a1 1 0 0 1 1 1v1a1 1 0 0 1-1 1h-1a1 1 0 0 1-1-1z"></path></svg>